<svg class="svg-icon" style="width: 1em;height: 1em;vertical-align: middle;fill: currentColor;overflow: hidden;" viewBox="0 0 1024 1024" version="1.1" xmlns="http://www.w3.org/2000/svg"><path d="M665.99 365.73H339.92c-19.88 0-36 16.12-36 36s16.12 36 36 36h326.07c19.88 0 36-16.12 36-36s-16.12-36-36-36zM573.97 516.55H339.92c-19.88 0-36 16.12-36 36s16.12 36 36 36h234.05c19.88 0 36-16.12 36-36s-16.12-36-36-36z" fill="#31D0C8" /><path d="M844.96 95.51H691.95c-0.81-21.35-18.42-38.46-39.96-38.46H353.92c-21.54 0-39.15 17.11-39.96 38.46H160.95c-24.26 0-44 19.74-44 44v767c0 24.26 19.74 44 44 44h684c24.26 0 44-19.73 44.01-44v-767c0-24.26-19.74-44-44-44z m-467.04 25.54h250.07v65.92H377.92v-65.92z m439.03 757.46h-628v-711h124.97v43.46c0 22.06 17.94 40 40 40h298.07c22.05 0 40-17.94 40-40v-43.46h124.96v711z" fill="#31D0C8" /></svg>